<?xml version="1.0"?><svg version="1.2" baseProfile="tiny-ps" viewBox="0 0 300 300" xmlns="http://www.w3.org/2000/svg" xmlns:xlink="http://www.w3.org/1999/xlink"><title>bimigabo</title><g><g fill="#f4f4f3" transform="matrix(.1 0 0 -.1 0 300)"><path d="M0 1500V0h3000v3000H0V1500z"/></g><g fill="#e1e1e1" transform="matrix(.1 0 0 -.1 0 300)"><path d="M1315 2959c-232-31-454-116-656-250l-94-63-105-106-106-105-67-100c-113-171-186-346-228-545l-20-95-6-120-6-120 7-86c4-47 11-92 16-99l9-14 8 7 7 8-9 7c-6 4-11 13-13 21l-3 14 15-13 16-12v16c0 9 4 16 8 16h9l-4-32-4-33 11 18c6 9 18 17 25 17h15v-24l13 19 14 18 7-12 7-11 10 5 9 6v-26l10 15 10 15v-26l10 6c6 3 10 14 10 23v18h40l39 1-17-14-17-15 18 6c10 3 22 6 27 6s11 8 13 18l5 17 1-18c0-10 9-26 18-35l17-17-6 22-6 23 10 7 11 6-7-11-6-11 9-5 10-6 6 10 6 10 17-9c9-5 34-12 56-15 21-4 42-8 46-11s11 3 14 12l7 17 8-13 9-13 6 11c9 14 36 14 36 0v-10l-9 5-9 6-12-15-12-15h11c6 0 11 5 11 11v10l9-5 9-6 12 15c7 8 19 15 26 15h14v-30h-23l6-6 7-7 15 13c8 7 13 16 10 20l-4 7 39-7 40-7v27l18 1c9 0 31 2 47 4l31 3 22-34 23-35-7-11-7-11 11 7 10 6 32-39c73-93 230-184 383-223l81-20 150 5 151 4 90 27c82 25 226 89 267 120l18 13 1 86 1 87h23l-15 10-15 10 28-2 27-2-4-13-5-13 26 17 27 18-7-18-7-18 10 6 10 6v-26l11 15 11 15 4-12 5-12 17 6c9 4 20 11 24 17l8 11v-25l19 3c10 2 30 10 44 20l26 17 6-10 6-10 30 16c17 8 33 13 37 10 3-3 1-6-4-6s-20-10-34-21l-25-21 28 16c15 9 27 14 27 10s7-1 15 6l14 12 12-8 12-7-7 11-7 12h10c6 0 12-1 14-2 1-1 12 4 25 11l22 12 7-17 6-17-12-21-12-21 20 24c12 12 19 27 16 31s2 10 10 14l15 5-1-7c-1-4-1-13 0-20l1-13 10 6 10 6v-20l19 2 20 1-11 13-10 13h27l-12 8-13 8h75l7-10 8-11v29l13-19 14-18 8 13 8 13-13-8-13-8 7 12 8 12 14-12 14-12-12-16-13-16 18 14 18 14-5 13-5 14 22-13c12-6 25-16 29-22l8-10v11c0 5-6 16-12 23l-13 12 18-7 18-7-3-14-3-14-59-24c-83-34-152-84-231-166l-67-71-31-13c-18-7-54-16-82-20l-50-7-56-30c-30-16-83-51-117-78l-61-50H159l43-82 43-83 72-96 72-96 97-92 97-92 89-60c179-119 382-198 606-234l87-15h268l101 16 101 16 115 38c138 45 243 96 371 181l94 63 115 115 116 116 63 94c85 128 136 232 182 373 45 138 57 201 64 364l6 122-11 123-11 123-30 114-29 114-40 97c-99 235-267 447-485 611l-80 60-120 59-120 59-95 30c-52 17-133 38-180 47l-85 16-145 4-145 4-70-10zm825-1111c0-4-4-8-9-8-6 0-12 4-15 8l-5 9h14c8 0 15-4 15-9zm790-484v-15l-10 6-10 6 5 10c9 14 15 11 15-7zm-545-22c-3-3-11 0-18 7l-12 12 18-7c10-3 15-9 12-12zm521-3 5-9h-14c-8 0-20 6-26 14l-12 14 21-5c11-3 23-9 26-14zm-606-20-11-20-11 7-11 7 17 9 16 9-6 11-7 11 11-7 12-7-10-20zm-492-76-3-98-58-28-57-28-79-11-79-12-72 11-71 11-56 28-57 27-63 64-64 64 6 9 6 10h-24l6 7 7 6-18 14-17 14 25-13c14-7 29-11 33-10l8 2-6-10-6-10h11c6 0 13 7 16 15l6 15 9-5 8-6-6-14c-3-8-2-15 1-15 4 0 11 10 16 23l9 22v-17l1-18h22l-5 13-5 14h26l-6-15-5-15 16 6 17 6-3-11c-1-6 3-12 9-15l12-4-1 13c-1 31 4 48 14 48h10l-6-10-6-10 18-1 18-1-12-5c-7-2-13-11-13-20v-14l16 15 16 16 9-5 9-6v25l13-18 14-19 6 17 6 16h32l-6-10-6-10 44 1c24 1 50-1 58-5l14-7-18 14-17 15h25c13 0 23-4 20-7-2-4 5-12 15-19l19-12 6 10 6 9 27-5 27-6 24 21 24 21 22-6 23-6 13 16c8 8 18 15 22 16h8l-3-97zm446 89 5-9h-28l5 9c3 4 7 8 9 8s6-4 9-8zm601-2 6-10h-10c-6 0-11 5-11 10 0 6 2 10 4 10 3 0 8-4 11-10zm-2718-14v-14l-15 5-14 6 14 8c7 5 13 9 14 9 0 0 1-6 1-14zm88-5c-2-5-14-11-25-14l-20-5v18h41l-7 12-7 11 12-7c6-4 9-11 6-15zm249 4c-4-8-8-15-10-15s-4 7-4 15 4 15 10 15h9l-5-15zm26-5c0-5-5-10-11-10h-10l6 10c3 6 8 10 11 10 2 0 4-4 4-10zm215 0c-3-5-12-10-18-10h-12l15 10c19 12 23 12 15 0zm895-23v-8l-10 6c-5 3-10 14-10 23v17l10-15c5-8 10-19 10-23zm50 23-15-10h19c11 0 17-3 13-6-3-3-15-3-26 1l-21 6 5 10c4 5 14 9 23 9h17l-15-10zm560 0 15-10h-10c-5 0-17 5-25 10l-15 10h10c6 0 17-5 25-10zm-1695-10 6-10h-10c-6 0-11 5-11 10 0 6 2 10 4 10 3 0 8-4 11-10zm906-16 1-19 5 13c3 7 2 16-1 19-3 4-6-2-5-13zm-181-24c0-5 5-10 11-10h10l-6 10c-3 6-8 10-11 10-2 0-4-4-4-10zm1260 88c-2-5-3-13-4-18 0-6-8-15-16-20l-15-10h11c6 0 17 7 24 15l12 14-5 13c-3 7-6 10-7 6zm136-21c3-10 9-15 12-12s0 11-7 18l-12 12 7-18zm-1861-27-6-10h10c6 0 11 5 11 10 0 6-2 10-4 10-3 0-8-4-11-10zm35 0-15-10h12c6 0 15 5 18 10 8 12 4 12-15 0zm1605 0-6-10h20c25 0 27 6 6 13l-14 6-6-9zm-2035-31v-10l10 6c6 3 10 8 10 11 0 2-4 4-10 4-5 0-10-5-10-11z"/></g><g fill="#ccc" transform="matrix(.1 0 0 -.1 0 300)"><path d="m1370 2959-105-7-105-26c-309-76-562-228-772-465-37-42-68-79-68-83v-8h295l41-19 41-19 22-31 22-31 37-1c20-1 48-4 62-8l25-8 18 15 18 16-38-67-38-66-35-1h-35l11-8c6-4 13-15 17-24l6-17-13 5-14 5-6-9-6-9h51l-4 12c-6 14 9 42 18 33 3-3 0-22-9-41-8-19-22-71-32-114l-18-78-1-155v-155l18-75 18-75 46-95 45-95 87-85 86-86 85-41c47-23 114-50 150-60l65-18 160 1h160l65 17c118 33 249 89 305 130l20 15v428l18 28c10 15 32 35 47 44l29 17 6 24 6 24-9 9-8 8-270-2-269-3v-60l57-7c66-8 113-29 128-57l10-20v-418l-57-26c-77-34-134-47-218-47-82 0-138 12-202 42l-46 22-62 58-62 58-36 68c-20 37-45 101-57 142l-22 75-5 159-6 159 13 84c7 46 16 85 21 88l8 6-6 17-6 17 14-12c16-16 29-17 29-2v10l-9-6-10-5-5 18-6 19 28 69 28 69 43-2 43-2 19-17 19-17v-42l-61 2c-34 1-58-1-55-4s1-12-6-20l-11-14 20-5 20-6-3-23-2-24 14 6 14 5v-24l14 11 14 12 5-13 5-13 1 13c1 6 6 12 12 12h11l-5-14-6-15 14 6 15 5-6 9-5 9h53l-13-17-14-17 12 7 11 7 6-12 5-13-2 20-2 20 11-2 11-2v17c0 9-7 22-16 29l-16 12 23-6 22-5 2-32c0-17 1-36 1-43l-1-11 15 5 14 6-10 10c-6 6-11 15-11 21v9l20-18 20-18-7-11-6-11 14 13 14 13-17 10c-10 6-18 17-18 24v15h30v-15c0-8 5-15 11-15h10l-6 9-6 10 21 11 20 11 19-11 20-10 13 18 13 18h75l-15-9-15-8-20 6-20 6v-31h25l-15-10c-8-5-11-10-7-10 5 0 22 9 38 21 16 11 29 17 28 12-1-4-1-12 0-17l1-8 15 12 15 12 27-7 27-6-15-10-14-9h12c6 0 15 5 18 11l7 11 26-24c14-13 22-17 18-10l-7 12 13 1c7 1 17 1 22 0s-2 13-16 31c-13 18-28 40-32 48l-7 15 15-19 15-18 10 6 10 6 3-22 3-23h27c32-1 39-6 41-34 1-11 6-22 12-25l11-4v37l-8-5-8-5v31h13c7 0 18-5 25-12l11-11 7 17 7 18 8-14 8-13 13 13c16 16 28 15 28-3v-14l38 5c20 3 52 6 70 7l32 2v24l-12-3c-7-1-10-1-5 1 11 7 9 41-3 48l-11 7-17-13-17-13 17 19 17 19 19-17 18-16 19 3 20 3-14-4-14-5 14-10 14-10-23 5-23 5 3-10c2-5 7-9 11-9 4 1 16 1 28 1h20l-5 9-6 9 25 4 25 5 11-13c6-8 15-12 19-9 5 3 12 0 16-6l7-12-11 7-10 6-4-12-5-13-24 13-24 12 24-6 24-6-7 11c-9 14-33 14-41 1l-6-10 25-11 25-12 26 17 26 17-6 9-6 10h10c13 0 14-6 2-29l-10-17h54l12 12 12 12-20 5-21 6 5-13 5-13h-14c-18 0-17 7 1 31l15 20v-28l12 12 11 11 19-10c10-5 18-14 18-20v-10l-12 7-11 7 6-11c10-15 33-9 62 16l26 23-6 19-6 20h9c5 0 16-8 23-17l14-17-11 7-12 7-6-16-6-16 17 8 18 9 168 3c92 2 167 5 167 8s-16 36-36 72c-209 382-573 645-1009 730l-100 20-95 4c-52 2-142 1-200-3zm93-376c-7-2-21-2-30 0l-18 5h60l-12-5zm140 0c-7-2-19-2-25 0l-13 5h50l-12-5zm317-397c0-12-5-7-19 24l-12 25 15-19c9-11 16-24 16-30zm720-5c-13-26-13-34 3-25l12 7-13-14-13-14-8 14-9 13 16 19c21 24 25 24 12 0zm-1353-28 2-28-8 20c-7 17-6 35 2 35 2 0 3-12 4-27zm1003 17v-10h-35l15 10c19 12 20 12 20 0zm140 6c0-3-4-8-10-11l-10-6v10c0 6 5 11 10 11 6 0 10-2 10-4zm356-8 7-13-8 7-8 8-14-18-14-17 11 23c12 25 16 27 26 10zm-284-5-12-5 6-10 7-11-12 7-11 7 5 10c4 5 12 9 18 8l12-1-13-5zm-1012-23c-12-23-16-24-26-8l-7 11 10-6 11-7 6 15c3 8 8 15 11 15s1-9-5-20zm325 10 6-10-15 6c-18 7-21 14-7 14 6 0 13-4 16-10zm760-8c-3-3-11 0-18 7l-12 12 18-7c10-3 15-9 12-12zm-1038-7v-16l-14 6c-8 3-18 5-21 6-4 0 2 4 13 9s20 9 21 9c0 1 1-6 1-14zm640-7-5-13-1 19c-1 11 2 17 5 13 3-3 4-12 1-19zm58 4c-3-3-11 0-18 7l-12 12 18-7c10-3 15-9 12-12zm43-7c-3-3-9 2-12 12l-7 18 12-12c7-7 10-15 7-18zm109 10 8-8-12 6-11 7-4-12-4-12-6 16-7 16 14-2c8-1 18-6 22-11zm-1191-7 7-11-16 6-17 6v-11c0-6-3-9-6-5-7 7 4 27 16 27 5 0 12-5 16-12zm39-6c-3-3-11 0-18 7l-12 12 18-7c10-3 15-9 12-12zm147 11-13-5 13-16 13-17-17 14-18 13 6 9c3 5 11 9 17 8l12-1-13-5zm554-2-6-9 12-4 12-4-16-23-16-22 3 33c3 38 3 38 11 38 3 0 3-4 0-9zm-282-33c-3-4-13-7-22-7l-17 1 17 5 17 4-5 17-6 17 10-15c6-8 8-18 6-22zm190 16 6-15-10 6c-6 3-10 10-10 16 0 14 7 11 14-7zm560-15-18-19-7 12c-4 7-6 15-3 20l5 7 16-6 16-6-8 13-8 13 12-7 12-8-17-19zm-678-21-11-8h40l-14-9-14-9-20 18-19 19-17-5-16-5 23 12c12 7 22 16 22 21 0 4 8 0 18-9l18-18-10-7zm-482 10-6-10 21 11 21 11-6-15c-4-9-9-14-12-11-2 3-12 1-21-4l-17-9-15 11-14 10 18-6 17-5v40l10-6 10-6-6-11zm260 0-6-9-14 12c-19 16-18 18 6 12l20-5-6-10zm382-2 2-25-18 12-19 11 17 13c9 7 17 13 17 13s1-11 1-24zm167 12c-2-5-13-8-24-8-10 0-19 3-19 8 0 4 11 7 24 7h24l-5-7zm-730-31-7-11-4 12-4 12-10-6-11-7 7 11 7 11 14-5 15-6-7-11zm-1133 73 15-10h-32l-11-24-11-24 14-6 14-5 4 22 4 22 2-25c1-14 6-32 11-40l10-15v17c0 9 6 19 13 21l12 5-17 1-18 1v21l20-11c11-6 20-15 20-20s10-14 21-21l21-11-7 12-7 11 18 15 19 16-17-5-16-6-5 20-5 20 11-9c7-5 20-12 29-15l17-6-6 15-5 14 16-6 16-6-3 13c-2 8-2 11 0 6l5-7 11 7 12 7-15-19-15-19 17 6 16 7 6-15c3-8 11-14 18-14h13l-15 10c-22 13-10 19 51 24 30 2 48 2 41-1l-12-5 6-9 6-10 14 12 15 12-2-9c-6-31 25-45 36-16l5 14-14-5-15-6 5 14 6 14 14-6 14-5v31l15-5c17-7 21-34 4-34h-10l7 12 7 11-12-7-12-8 5-15 6-14-10 6-10 6v-15c0-8-4-17-10-21l-9-6-20 20-20 20-13-17-13-16 13 8 12 7 16-15c20-20 29-20 49 1l17 16 6-10c9-13 46-11 49 2l2 10-14-3c-7-1-16 1-19 6l-5 9 17-2c9 0 25-6 36-12l18-10-23-17c-13-9-19-16-13-16 5 0 15 5 22 12l12 12v-16l15 12c8 7 15 18 15 24v11l-8-13-8-12-28 29-28 29 14 8 13 7-7-8-8-8 22-18c27-24 28-24 28 7v25l-12-7-11-7 7 12 7 11 10-5c5-4 9-15 9-25 0-26 10-50 22-50h10l-11 14-11 13 13 12 14 11 6-7 7-6 15 13 15 13-19 14-20 13-65-2-64-3 6-9 5-9-14 9c-22 13-43 14-51 1l-8-12v26l-70-2-70-2v-19l16 6 15 6-6-10c-3-6-13-10-21-10h-14v26l-55 2-54 1-6-9c-3-6-12-10-18-10h-12l15 10 15 10H175l15-10zm560-22v-10l-15 12c-8 7-15 14-15 16s7 1 15-2c8-4 15-11 15-16zm-495-28-6-10h22l-7-11-6-11-9 13c-12 19-11 29 2 29h10l-6-10zm75 0c0-6 7-10 15-10s15 2 15 4-7 6-15 10l-15 5v-9zm81-6 1-19 5 13c3 7 2 16-1 19-3 4-6-2-5-13zm39 6c0-5 5-10 11-10h10l-6 10c-3 6-8 10-11 10-2 0-4-4-4-10zm270 2c0-4 7-15 15-26l14-18-2 21-1 20-13 5c-7 3-13 2-13-2zm376-7 6-15h48v21l-9-6-10-5-6 10c-3 5-13 10-20 10h-14l5-15zm-790-13-5-9h28l-5 9c-3 4-7 8-9 8s-6-4-9-8zm457-9v-13l14 11c7 6 13 12 13 14 0 1-6 2-13 2h-14v-14zm-402-10 1-18 5 14 5 13 10-13 10-14-4 14c-3 8-10 17-16 19l-12 4 1-19zm1119 6v-9h43l-7 7c-10 11-36 12-36 2zm-1340-9c0-5 5-10 10-10 6 0 10 5 10 10 0 6-4 10-10 10-5 0-10-4-10-10zm260 6c0-3 9-10 19-16l20-10 7 12 7 13-8-7-8-7-18 10c-11 5-19 7-19 5zm1187-11 5-15 9 6c12 7 11 11-5 17l-15 6 6-14zm444 1-12-14 14-5 13-5v19c0 23 0 23-15 5zm-338-17c-2-23 3-25 10-4l6 14-7 5-8 5-1-20zm282 11-6-10h10c6 0 11 5 11 10 0 6-2 10-4 10-3 0-8-4-11-10zm-465-10-15-10h35v10c0 12-1 12-20 0zm260-9c0-6 4-13 10-16l10-6-6 15c-7 18-14 21-14 7zm488-8c6-2 18-2 25 0l12 5h-50l13-5zm605-689c-119-26-254-108-330-200-20-25-49-54-64-65l-28-20-78-15-77-14-45-27c-26-14-74-48-107-75l-62-48H170v-11c0-21 81-159 142-242l61-82 98-96 97-96 93-63c203-136 397-211 634-245l100-15h220l100 15c422 63 779 296 1017 665 69 106 96 160 141 280l36 96 20 99c11 55 21 116 23 135l3 35-15 1c-8 1-43-4-77-12z"/></g><g fill="#a7a7a7" transform="matrix(.1 0 0 -.1 0 300)"><path d="m1320 2559-75-19-80-39-80-39-58-46-58-47-46-62c-25-34-63-98-84-142l-39-80-21-95-22-95v-310l21-80 22-80 42-85 42-85 81-81 80-81 95-46c52-26 122-54 155-63l60-16 110-5 110-5 97 16 97 16 81 30c45 16 111 45 146 65l64 36v409l16 40 16 40 34 21 34 21v48h-550l2-25 2-26 21-4c11-2 41-7 68-10l47-6 26-22 25-22 9-40 10-40v-355l-24-15c-14-9-49-26-78-37l-53-21-101-5-100-4-60 17c-80 23-129 53-196 120l-57 57-35 72c-19 39-42 99-51 134l-16 63-8 110-8 109 8 108 8 107 21 80 20 80 40 81 39 81 55 56 55 57 68 32 68 32 105 1h105l68-32 67-32 53-53 52-53 32-60c17-33 39-86 49-118l18-58 20 3 21 3-4 195-3 195-12 11c-20 21-188 82-268 98l-77 16-123-1h-123l-75-20zm1553-1234c-34-8-91-26-125-42l-63-28-55-45c-30-24-79-70-107-101l-53-57-27-10c-16-6-54-16-85-21l-57-10-49-25c-27-14-78-48-112-76l-63-50h-954c-524 0-953-3-953-6s18-40 40-82c42-82 124-195 203-282l47-52 78 21 78 21h134l92-30 93-31 75-6 75-5 120 32 120 33 65-1 65-1 90-20 90-20-35-2c-19-1-87-3-150-4l-115-1-80-26c-45-14-110-32-145-38l-65-12-60 7-60 7-70 25c-38 14-94 32-124 40l-54 14-67-11c-38-6-76-17-86-24l-17-13 69-55c92-74 161-117 285-178l103-51 96-29c52-16 136-37 185-47l90-18 175 1 175 1 102 21c280 60 534 196 733 392l87 85 66 90 66 90 55 106 55 105 35 105c50 150 82 331 59 328-5 0-36-7-70-14zM1191 661l-14-9 24-13 24-13-50-13c-27-7-79-16-114-19l-64-7 4 12c3 7 9 13 14 13 6 1 15 8 22 17l11 16 8-8 7-7h-28l13-9 13-8 35 11 34 11-4 12-5 12 22 3c12 2 31 4 42 5l20 2-14-8zm-264-7c-3-3-12-4-19-1l-13 5 19 1c11 1 17-2 13-5zm353-5c0-4-10-9-22-13l-23-5-13 13-13 13 36-1c19-1 35-4 35-7zm-286-23c-1-12-3-24-3-28-1-3-9-5-18-3-10 2-35 7-55 10-21 3-38 10-38 15v8l22-6 21-5-6 10-6 10 24-3 25-2v8c0 5 8 8 18 7l18-1-2-20zm109 17c-7-2-19-2-25 0l-13 5h50l-12-5zm512-11c-3-3-11 0-18 7l-12 12 18-7c10-3 15-9 12-12zm-752-9c-7-2-19-2-25 0l-13 5h50l-12-5zm277 23c0-2 7-7 16-10l15-6-6 10c-6 10-25 14-25 6z"/></g><g fill="#939393" transform="matrix(.1 0 0 -.1 0 300)"><path d="M1327 2560c-212-54-371-174-469-357l-37-68-27-90-27-90-5-172-4-172 17-78c62-282 243-471 526-549l64-18h290l90 22 90 22 113 55 112 55v421l14 33 14 33 36 22 36 23v48h-540v-48l16-6c9-3 29-6 45-6 39 0 89-22 114-50l20-22 3-209 3-208-33-21c-18-11-64-30-101-41l-68-21-107 3-108 4-68 34-68 33-57 57-56 56-32 60c-17 33-40 90-52 127l-20 67-11 125-12 125 11 109c20 193 65 325 149 437 46 61 122 120 182 141l45 15 75 6 75 5 65-16 64-17 46-29c91-59 154-143 201-270l27-75 19 3c10 2 18 5 18 5 0 1-1 89-3 195l-3 192-41 21c-53 27-105 46-193 71l-70 19-145 5-145 4-78-20zm1509-1245c-27-8-79-28-115-46l-66-33-95-91c-52-51-104-97-115-102-11-6-50-16-87-23l-68-12-57-35c-32-19-82-54-112-79l-54-44-948 2c-522 2-949 1-949-2 0-12 90-163 133-222 25-35 70-91 101-125l56-61 19 5c11 3 22 11 25 19l6 14 24-4 24-4 7 16 6 16 9-14 10-15v30l10-15 9-15 13 14 13 14-15-8-15-9 14 17c14 18 26 23 16 8l-5-10 9-5c5-4 46-7 90-8l81-2-12-9-13-9 15 5c8 2 16 10 18 18l3 14h-28l-28 1-7-11-8-10v37l20-5 20-5v19l10-6c6-4 31-7 55-7h45l-6-9-5-9h10c5 0 16 6 24 14l14 15 12-12 12-12-5 27-4 27 15-6 15-6-12-7-11-7 13-9c14-11 24-11 51 1l18 7-11 13-11 13 10 6 9 6 24-10 23-10-28 5-27 6 12-20 12-20 9 12 9 12 4-11 4-10 30 4 29 4 5 14 6 15-23 9-22 9 27-2 27-1-5-8c-3-4 0-8 6-8h11l-8-13c-4-6-8-18-9-26l-3-13 24 22 24 23-6 9-5 10 21-11c11-7 21-14 21-17s-4-3-9 1l-10 5 2-18 1-19h13c6 0 10 4 8 8-3 3 1 11 8 17l13 11 13-8 14-9-7-10-6-10 17 3c10 2 20 4 23 5s10 1 15 0l10-2-7 7-7 7 14 14c15 15 26 18 24 7-3-19 2-33 11-33 5 0 9 3 7 8-1 4 3 7 8 7 6 0 9-2 8-5s8-7 19-7l20-2 26 17 26 17-7-12-8-13h39l5 13 4 12 12-12c6-7 8-11 5-8-4 3-13 0-20-6s-27-12-45-14l-33-4-7-13c-10-15-1-27 9-12 4 5 17 11 30 11l22 2-5-12c-3-7 2-2 11 10l16 23h19c10 0 21-4 24-10 3-5 11-10 16-10h10l-15 16c-9 8-16 17-16 19 0 6 37-3 59-15l21-11 1 18c1 10 1 22 0 26l-1 8 9-5 10-6-4-21-4-21 14 12 14 12 11-7 10-6 1 13c1 7 1 16 0 21-1 4 8 2 19-5s20-16 20-20c0-5 8-8 18-8h17l-15 10-15 10 10 1c6 1 13 1 18 0 4 0 7 4 7 10v10l9-5 9-6 5 12c3 7 4-1 3-19l-3-31 13 5 14 5-6 9-5 9 15-6 16-6-6-10-6-10 21 11c24 13 29 23 7 15l-14-5-7 10-6 11 17-7 17-6-8 13-8 13 30-22 29-22 17 7c9 3 17 11 17 16v10l17-6 16-7 7 11 7 12 6-17 7-16-9 6-10 5-5-9-6-9 17 3c10 2 18 4 18 5s8 3 18 5 25 12 33 22l15 18-9-20-10-20 14-12 13-13 6 9 5 9-12 6c-7 3-3 3 10 0l22-5v10c0 6 5 11 11 11h11l-6-16-6-16 12 5 13 4-3 13-3 13 13-9c7-6 20-10 28-9s23-3 34-8l18-9-7 12-7 12 23-13c31-17 48-19 55-8l5 9 19-10 18-10 5 13 5 12 1-14 1-13 15 12 15 12v-24l25 4 25 5 5-8 5-8-125 1h-125v16l-30-2c-16-1-33-6-37-11l-8-8 21 5 22 6 13-10 14-9-77 3-76 3 4-7 5-8h-29c-16 0-51-7-77-15-27-8-52-12-57-9-4 3-8 2-8-3 0-4-10-13-23-18-45-22-112-60-126-73-24-23-83-57-130-76l-43-17-112-10c-180-16-408-75-479-124l-18-12 39-16c54-22 213-63 302-79l75-13 160 1 160 1 105 22c261 55 470 158 675 331l76 65 81 100c142 174 225 324 281 501 26 83 57 228 57 270v24l-32-1c-18 0-55-7-82-14zm-841-585 6-10-73 1h-73l20 9c11 5 41 9 67 9l47 1 6-10zm-440-37c33-9 92-19 130-23l70-6-30-14-30-13-65-4-65-4-79 13-80 14-58-8c-32-4-100-20-150-34l-91-26-96 4-96 5-110 28-110 28-130-6-130-5 45 20c25 11 77 27 117 35l72 16 98-17c54-9 127-23 163-31 88-20 127-19 229 6 47 12 118 27 156 35l70 13 55-5c30-3 82-13 115-21zM729 516l-1-21-5 15c-3 8-10 21-16 28l-10 12 17-6 16-6-1-22zm171 24c0-5-5-10-11-10h-10l6 10c3 6 8 10 11 10 2 0 4-4 4-10zm535-8c-3-3-11 0-18 7l-12 12 18-7c10-3 15-9 12-12zm485 4-10-10-11 11-12 12 21-2 22-1-10-10zm538-31c-3-3-9 2-12 12l-7 18 12-12c7-7 10-15 7-18zM480 464c0-2-7-4-15-4s-15 4-15 10v9l15-5c8-4 15-8 15-10zm772 56v-25l5 13c2 6 2 18 0 25l-5 12v-25zm518 9v-10l10 6c6 3 10 8 10 11 0 2-4 4-10 4-5 0-10-5-10-11zm-61-12 11-14-8-8-7-8 12 7 12 7-6 14c-3 8-10 15-15 15h-10l11-13zm-877-52c3-3 16-8 28-10l23-4-7 6c-4 4-16 8-28 10s-19 1-16-2zm-216-43-5-9h28l-5 9c-3 4-7 8-9 8s-6-4-9-8z"/></g><g fill="#414141" transform="matrix(.1 0 0 -.1 0 300)"><path d="M1400 2574c-14-3-58-14-99-25l-75-20-80-41-81-42-81-80-81-81-47-95-46-95-22-80-22-80v-185l-1-185 23-78c28-97 66-174 127-255l47-62 60-47c117-90 258-143 418-158l76-7 94 11c52 7 129 21 170 32l75 20 103 50 102 51v433l20 32 19 32 31 16 30 16v49h-540v-48l48-6c26-4 63-14 83-22l36-15 16-29 17-28v-409l-52-25c-61-30-111-44-188-53l-55-6-69 11-69 11-56 26-56 26-66 68-67 67-31 64c-37 78-57 152-72 267l-12 86 6 120c7 134 17 195 53 306l25 77 35 58c19 33 56 81 82 107l47 48 65 32 65 32h230l65-32 66-32 52-53 53-53 39-80c21-44 41-95 45-112l7-33h38l-2 197-3 197-80 34c-44 18-116 42-160 53l-80 20-125 4c-69 2-136 1-150-1zm1441-1260c-29-8-86-31-125-52l-71-37-93-90c-51-49-99-93-105-97-7-3-41-11-77-18l-65-12-49-24c-59-30-152-103-226-178l-54-56h792l41 84c53 110 106 269 126 380 8 49 15 95 15 102v14l-27-1c-16 0-52-7-82-15zm-667-825-150-8-67-15c-80-19-118-37-237-115l-89-59-48-15-48-16-124-11-124-11-101-26c-55-14-132-39-169-56l-69-30 24-13c38-20 195-62 292-79l89-15h292l86 14c298 48 588 196 794 405l59 61-129-1c-72-1-198-6-281-10z"/></g></g></svg>